# Catalogue 3D des equipements biomedicaux
# Genere par generate_equipment_3d.py
mtllib equipment_catalog.mtl
o EQ-AIR-PT-01
v 0.000000 0.000000 0.000000
v 0.100000 0.000000 0.000000
v 0.100000 0.060000 0.000000
v 0.000000 0.060000 0.000000
v 0.000000 0.000000 0.100000
v 0.100000 0.000000 0.100000
v 0.100000 0.060000 0.100000
v 0.000000 0.060000 0.100000
usemtl EQ-AIR-PT-01
s off
f 1 4 3 2
f 5 6 7 8
f 1 2 6 5
f 4 8 7 3
f 1 5 8 4
f 2 3 7 6
o EQ-ARM-MED-01
v 2.900000 0.000000 0.000000
v 3.800000 0.000000 0.000000
v 3.800000 0.450000 0.000000
v 2.900000 0.450000 0.000000
v 2.900000 0.000000 1.950000
v 3.800000 0.000000 1.950000
v 3.800000 0.450000 1.950000
v 2.900000 0.450000 1.950000
usemtl EQ-ARM-MED-01
s off
f 9 12 11 10
f 13 14 15 16
f 9 10 14 13
f 12 16 15 11
f 9 13 16 12
f 10 11 15 14
o EQ-AUTOCLAVE-01
v 5.800000 0.000000 0.000000
v 6.600000 0.000000 0.000000
v 6.600000 0.900000 0.000000
v 5.800000 0.900000 0.000000
v 5.800000 0.000000 1.850000
v 6.600000 0.000000 1.850000
v 6.600000 0.900000 1.850000
v 5.800000 0.900000 1.850000
usemtl EQ-AUTOCLAVE-01
s off
f 17 20 19 18
f 21 22 23 24
f 17 18 22 21
f 20 24 23 19
f 17 21 24 20
f 18 19 23 22
o EQ-BUR-MED-01
v 8.700000 0.000000 0.000000
v 10.300000 0.000000 0.000000
v 10.300000 0.800000 0.000000
v 8.700000 0.800000 0.000000
v 8.700000 0.000000 0.740000
v 10.300000 0.000000 0.740000
v 10.300000 0.800000 0.740000
v 8.700000 0.800000 0.740000
usemtl EQ-BUR-MED-01
s off
f 25 28 27 26
f 29 30 31 32
f 25 26 30 29
f 28 32 31 27
f 25 29 32 28
f 26 27 31 30
o EQ-CH-MED-01
v 11.600000 0.000000 0.000000
v 12.200000 0.000000 0.000000
v 12.200000 0.600000 0.000000
v 11.600000 0.600000 0.000000
v 11.600000 0.000000 0.950000
v 12.200000 0.000000 0.950000
v 12.200000 0.600000 0.950000
v 11.600000 0.600000 0.950000
usemtl EQ-CH-MED-01
s off
f 33 36 35 34
f 37 38 39 40
f 33 34 38 37
f 36 40 39 35
f 33 37 40 36
f 34 35 39 38
o EQ-CH-PAT-01
v 0.000000 2.900000 0.000000
v 0.550000 2.900000 0.000000
v 0.550000 3.450000 0.000000
v 0.000000 3.450000 0.000000
v 0.000000 2.900000 0.850000
v 0.550000 2.900000 0.850000
v 0.550000 3.450000 0.850000
v 0.000000 3.450000 0.850000
usemtl EQ-CH-PAT-01
s off
f 41 44 43 42
f 45 46 47 48
f 41 42 46 45
f 44 48 47 43
f 41 45 48 44
f 42 43 47 46
o EQ-CHAR-SOIN-01
v 2.900000 2.900000 0.000000
v 3.650000 2.900000 0.000000
v 3.650000 3.450000 0.000000
v 2.900000 3.450000 0.000000
v 2.900000 2.900000 0.950000
v 3.650000 2.900000 0.950000
v 3.650000 3.450000 0.950000
v 2.900000 3.450000 0.950000
usemtl EQ-CHAR-SOIN-01
s off
f 49 52 51 50
f 53 54 55 56
f 49 50 54 53
f 52 56 55 51
f 49 53 56 52
f 50 51 55 54
o EQ-COMPR-AIR-01
v 5.800000 2.900000 0.000000
v 7.000000 2.900000 0.000000
v 7.000000 3.700000 0.000000
v 5.800000 3.700000 0.000000
v 5.800000 2.900000 1.600000
v 7.000000 2.900000 1.600000
v 7.000000 3.700000 1.600000
v 5.800000 3.700000 1.600000
usemtl EQ-COMPR-AIR-01
s off
f 57 60 59 58
f 61 62 63 64
f 57 58 62 61
f 60 64 63 59
f 57 61 64 60
f 58 59 63 62
o EQ-ECG-01
v 8.700000 2.900000 0.000000
v 9.150000 2.900000 0.000000
v 9.150000 3.300000 0.000000
v 8.700000 3.300000 0.000000
v 8.700000 2.900000 1.200000
v 9.150000 2.900000 1.200000
v 9.150000 3.300000 1.200000
v 8.700000 3.300000 1.200000
usemtl EQ-ECG-01
s off
f 65 68 67 66
f 69 70 71 72
f 65 66 70 69
f 68 72 71 67
f 65 69 72 68
f 66 67 71 70
o EQ-ECHO-01
v 11.600000 2.900000 0.000000
v 12.200000 2.900000 0.000000
v 12.200000 3.450000 0.000000
v 11.600000 3.450000 0.000000
v 11.600000 2.900000 1.400000
v 12.200000 2.900000 1.400000
v 12.200000 3.450000 1.400000
v 11.600000 3.450000 1.400000
usemtl EQ-ECHO-01
s off
f 73 76 75 74
f 77 78 79 80
f 73 74 78 77
f 76 80 79 75
f 73 77 80 76
f 74 75 79 78
o EQ-ELEC-PT-01
v 0.000000 5.800000 0.000000
v 0.080000 5.800000 0.000000
v 0.080000 5.840000 0.000000
v 0.000000 5.840000 0.000000
v 0.000000 5.800000 0.080000
v 0.080000 5.800000 0.080000
v 0.080000 5.840000 0.080000
v 0.000000 5.840000 0.080000
usemtl EQ-ELEC-PT-01
s off
f 81 84 83 82
f 85 86 87 88
f 81 82 86 85
f 84 88 87 83
f 81 85 88 84
f 82 83 87 86
o EQ-LIT-HOSP-01
v 2.900000 5.800000 0.000000
v 5.100000 5.800000 0.000000
v 5.100000 6.800000 0.000000
v 2.900000 6.800000 0.000000
v 2.900000 5.800000 0.900000
v 5.100000 5.800000 0.900000
v 5.100000 6.800000 0.900000
v 2.900000 6.800000 0.900000
usemtl EQ-LIT-HOSP-01
s off
f 89 92 91 90
f 93 94 95 96
f 89 90 94 93
f 92 96 95 91
f 89 93 96 92
f 90 91 95 94
o EQ-MON-MULTI-01
v 5.800000 5.800000 0.000000
v 6.150000 5.800000 0.000000
v 6.150000 6.050000 0.000000
v 5.800000 6.050000 0.000000
v 5.800000 5.800000 0.300000
v 6.150000 5.800000 0.300000
v 6.150000 6.050000 0.300000
v 5.800000 6.050000 0.300000
usemtl EQ-MON-MULTI-01
s off
f 97 100 99 98
f 101 102 103 104
f 97 98 102 101
f 100 104 103 99
f 97 101 104 100
f 98 99 103 102
o EQ-OXY-PT-01
v 8.700000 5.800000 0.000000
v 8.800000 5.800000 0.000000
v 8.800000 5.860000 0.000000
v 8.700000 5.860000 0.000000
v 8.700000 5.800000 0.100000
v 8.800000 5.800000 0.100000
v 8.800000 5.860000 0.100000
v 8.700000 5.860000 0.100000
usemtl EQ-OXY-PT-01
s off
f 105 108 107 106
f 109 110 111 112
f 105 106 110 109
f 108 112 111 107
f 105 109 112 108
f 106 107 111 110
o EQ-PAIL-LAB-01
v 11.600000 5.800000 0.000000
v 14.000000 5.800000 0.000000
v 14.000000 6.550000 0.000000
v 11.600000 6.550000 0.000000
v 11.600000 5.800000 0.900000
v 14.000000 5.800000 0.900000
v 14.000000 6.550000 0.900000
v 11.600000 6.550000 0.900000
usemtl EQ-PAIL-LAB-01
s off
f 113 116 115 114
f 117 118 119 120
f 113 114 118 117
f 116 120 119 115
f 113 117 120 116
f 114 115 119 118
o EQ-PC-MED-01
v 0.000000 8.700000 0.000000
v 0.550000 8.700000 0.000000
v 0.550000 9.200000 0.000000
v 0.000000 9.200000 0.000000
v 0.000000 8.700000 0.500000
v 0.550000 8.700000 0.500000
v 0.550000 9.200000 0.500000
v 0.000000 9.200000 0.500000
usemtl EQ-PC-MED-01
s off
f 121 124 123 122
f 125 126 127 128
f 121 122 126 125
f 124 128 127 123
f 121 125 128 124
f 122 123 127 126
o EQ-PSE-01
v 2.900000 8.700000 0.000000
v 3.200000 8.700000 0.000000
v 3.200000 8.900000 0.000000
v 2.900000 8.900000 0.000000
v 2.900000 8.700000 0.150000
v 3.200000 8.700000 0.150000
v 3.200000 8.900000 0.150000
v 2.900000 8.900000 0.150000
usemtl EQ-PSE-01
s off
f 129 132 131 130
f 133 134 135 136
f 129 130 134 133
f 132 136 135 131
f 129 133 136 132
f 130 131 135 134
o EQ-REF-MED-01
v 5.800000 8.700000 0.000000
v 6.400000 8.700000 0.000000
v 6.400000 9.300000 0.000000
v 5.800000 9.300000 0.000000
v 5.800000 8.700000 1.300000
v 6.400000 8.700000 1.300000
v 6.400000 9.300000 1.300000
v 5.800000 9.300000 1.300000
usemtl EQ-REF-MED-01
s off
f 137 140 139 138
f 141 142 143 144
f 137 138 142 141
f 140 144 143 139
f 137 141 144 140
f 138 139 143 142
o EQ-RESP-01
v 8.700000 8.700000 0.000000
v 9.250000 8.700000 0.000000
v 9.250000 9.200000 0.000000
v 8.700000 9.200000 0.000000
v 8.700000 8.700000 1.400000
v 9.250000 8.700000 1.400000
v 9.250000 9.200000 1.400000
v 8.700000 9.200000 1.400000
usemtl EQ-RESP-01
s off
f 145 148 147 146
f 149 150 151 152
f 145 146 150 149
f 148 152 151 147
f 145 149 152 148
f 146 147 151 150
o EQ-SCIA-01
v 11.600000 8.700000 0.000000
v 12.500000 8.700000 0.000000
v 12.500000 9.600000 0.000000
v 11.600000 9.600000 0.000000
v 11.600000 8.700000 0.400000
v 12.500000 8.700000 0.400000
v 12.500000 9.600000 0.400000
v 11.600000 9.600000 0.400000
usemtl EQ-SCIA-01
s off
f 153 156 155 154
f 157 158 159 160
f 153 154 158 157
f 156 160 159 155
f 153 157 160 156
f 154 155 159 158
o EQ-TAB-OP-01
v 0.000000 11.600000 0.000000
v 2.100000 11.600000 0.000000
v 2.100000 12.150000 0.000000
v 0.000000 12.150000 0.000000
v 0.000000 11.600000 0.900000
v 2.100000 11.600000 0.900000
v 2.100000 12.150000 0.900000
v 0.000000 12.150000 0.900000
usemtl EQ-TAB-OP-01
s off
f 161 164 163 162
f 165 166 167 168
f 161 162 166 165
f 164 168 167 163
f 161 165 168 164
f 162 163 167 166
o EQ-TBL-EX-01
v 2.900000 11.600000 0.000000
v 4.850000 11.600000 0.000000
v 4.850000 12.250000 0.000000
v 2.900000 12.250000 0.000000
v 2.900000 11.600000 0.850000
v 4.850000 11.600000 0.850000
v 4.850000 12.250000 0.850000
v 2.900000 12.250000 0.850000
usemtl EQ-TBL-EX-01
s off
f 169 172 171 170
f 173 174 175 176
f 169 170 174 173
f 172 176 175 171
f 169 173 176 172
f 170 171 175 174
o EQ-TBL-EX-ELEC-01
v 5.800000 11.600000 0.000000
v 7.800000 11.600000 0.000000
v 7.800000 12.300000 0.000000
v 5.800000 12.300000 0.000000
v 5.800000 11.600000 0.950000
v 7.800000 11.600000 0.950000
v 7.800000 12.300000 0.950000
v 5.800000 12.300000 0.950000
usemtl EQ-TBL-EX-ELEC-01
s off
f 177 180 179 178
f 181 182 183 184
f 177 178 182 181
f 180 184 183 179
f 177 181 184 180
f 178 179 183 182
o EQ-VAC-PT-01
v 8.700000 11.600000 0.000000
v 8.800000 11.600000 0.000000
v 8.800000 11.660000 0.000000
v 8.700000 11.660000 0.000000
v 8.700000 11.600000 0.100000
v 8.800000 11.600000 0.100000
v 8.800000 11.660000 0.100000
v 8.700000 11.660000 0.100000
usemtl EQ-VAC-PT-01
s off
f 185 188 187 186
f 189 190 191 192
f 185 186 190 189
f 188 192 191 187
f 185 189 192 188
f 186 187 191 190
